<?xml version="1.0" standalone="no"?>
<!DOCTYPE svg PUBLIC "-//W3C//DTD SVG 20010904//EN"
 "http://www.w3.org/TR/2001/REC-SVG-20010904/DTD/svg10.dtd">
<svg version="1.0" xmlns="http://www.w3.org/2000/svg"
 width="1376.000000pt" height="768.000000pt" viewBox="0 0 1376.000000 768.000000"
 preserveAspectRatio="xMidYMid meet">

<g transform="translate(0.000000,768.000000) scale(0.100000,-0.100000)"
fill="#000000" stroke="none">
<path d="M7557 5759 c-277 -30 -524 -175 -662 -388 -200 -309 -172 -689 68
-939 131 -136 281 -210 684 -336 61 -19 137 -47 168 -62 185 -91 192 -296 12
-388 -103 -52 -270 -48 -394 11 -71 33 -152 109 -187 175 -16 29 -30 55 -32
57 -7 8 -174 -33 -174 -43 0 -7 16 -45 36 -86 71 -148 244 -278 419 -315 83
-17 213 -19 287 -4 139 29 270 124 324 236 26 52 28 69 29 163 0 134 -21 185
-107 265 -86 80 -152 109 -497 220 -338 108 -490 228 -556 438 -30 92 -34 238
-10 327 47 176 177 332 346 413 52 25 126 52 166 61 89 20 265 21 353 2 282
-60 490 -272 532 -542 l12 -74 89 0 90 0 -7 62 c-33 315 -229 565 -537 687
-131 51 -312 76 -452 60z"/>
<path d="M5210 5128 l0 -613 27 35 c15 19 56 63 92 98 l65 62 0 423 1 422 716
3 715 2 39 42 c22 23 66 63 98 90 l58 48 -905 0 -906 0 0 -612z"/>
<path d="M7518 5354 c-137 -33 -256 -126 -312 -243 -29 -61 -31 -74 -31 -171
0 -124 18 -172 95 -249 69 -69 158 -111 415 -195 127 -42 264 -92 305 -111
250 -121 370 -295 370 -538 0 -165 -55 -301 -170 -417 -175 -178 -426 -252
-695 -205 -174 31 -308 98 -469 237 -55 49 -131 104 -167 123 -118 62 -145 65
-626 65 l-433 0 0 195 c0 156 3 202 15 225 31 59 35 60 475 60 l400 0 0 90 0
91 -427 -3 c-412 -3 -430 -4 -474 -24 -55 -26 -111 -79 -141 -137 -22 -41 -23
-52 -26 -359 l-3 -318 505 0 c335 0 523 -4 558 -11 74 -16 119 -41 201 -113
266 -232 517 -328 817 -313 578 29 966 525 814 1038 -37 122 -124 255 -223
338 -129 106 -260 169 -540 257 -283 88 -365 136 -391 229 -16 58 -5 115 33
172 39 57 83 88 156 109 74 22 188 15 259 -16 66 -29 138 -106 155 -167 l11
-43 89 0 90 0 -6 50 c-18 155 -170 307 -354 355 -70 18 -198 18 -275 -1z"/>
<path d="M5620 5084 c0 -220 2 -255 15 -251 8 4 42 11 77 18 35 6 69 13 76 15
9 2 12 41 12 149 l0 145 409 0 409 0 12 48 c6 26 20 66 30 90 l19 42 -530 0
-529 0 0 -256z"/>
<path d="M5845 4698 c-166 -12 -297 -71 -415 -188 -101 -99 -153 -184 -192
-311 -21 -72 -22 -91 -26 -601 l-3 -528 877 0 877 0 -49 37 c-27 20 -77 61
-112 90 l-63 53 -669 0 -669 0 -3 383 c-2 210 1 414 5 452 21 182 173 359 355
415 60 19 93 20 499 20 239 0 433 4 431 8 -1 4 -16 39 -31 78 -16 38 -32 76
-37 84 -6 13 -55 15 -346 15 -186 0 -379 -3 -429 -7z"/>
</g>
</svg>
